<?xml version="1.0" encoding="UTF-8"?>
<svg width="11px" height="16px" viewBox="0 0 11 16" version="1.1" xmlns="http://www.w3.org/2000/svg" xmlns:xlink="http://www.w3.org/1999/xlink">
    <!-- Generator: Sketch 58 (84663) - https://sketch.com -->
    <title>pause-button</title>
    <desc>Created with Sketch.</desc>
    <g id="Symbols" stroke="none" stroke-width="1" fill="none" fill-rule="evenodd" opacity="0.6">
        <g id="icons-/-icon_stop_mini" transform="translate(-7.000000, -4.000000)" fill="#51596D" fill-rule="nonzero">
            <g id="pause-button" transform="translate(7.000000, 4.000000)">
                <path d="M2.14751087,0 C1.15679348,0 0.354032609,0.778782609 0.354032609,1.73913043 L0.354032609,14.2521739 C0.354032609,15.2132174 1.15679348,15.9913043 2.14751087,15.9913043 C3.13822826,15.9913043 3.94098913,15.2128696 3.94098913,14.2521739 L3.94098913,1.73913043 C3.94098913,0.778434783 3.13858696,0 2.14751087,0 Z" id="Path"></path>
                <path d="M8.60403261,0 C7.61331522,0 6.81055435,0.778782609 6.81055435,1.73913043 L6.81055435,14.2521739 C6.81055435,15.2128696 7.61331522,15.9913043 8.60403261,15.9913043 C9.59475,15.9913043 10.3975109,15.2128696 10.3975109,14.2521739 L10.3975109,1.73913043 C10.3975109,0.778782609 9.59475,0 8.60403261,0 Z" id="Path"></path>
            </g>
        </g>
    </g>
</svg>