<?xml version="1.0" encoding="UTF-8"?>
<svg width="20px" height="20px" viewBox="0 0 20 20" version="1.1" xmlns="http://www.w3.org/2000/svg" xmlns:xlink="http://www.w3.org/1999/xlink">
    <!-- Generator: Sketch 58 (84663) - https://sketch.com -->
    <title>repeat</title>
    <desc>Created with Sketch.</desc>
    <g id="Symbols" stroke="none" stroke-width="1" fill="none" fill-rule="evenodd">
        <g id="icons-/-icon_replay" transform="translate(-2.000000, -2.000000)" fill="#51596D" fill-rule="nonzero">
            <g id="repeat" transform="translate(2.000000, 2.000000)">
                <path d="M19.7791813,3.92576998 L16.0364912,0.183079922 C15.8580897,0.00467836257 15.5898635,-0.0489668616 15.3565692,0.0483430799 C15.1232749,0.145653021 14.9710721,0.371461988 14.9710721,0.623469786 L14.9710721,2.49481481 L6.86191033,2.49481481 C3.07181287,2.49481481 0.000311890838,5.56631579 0.000311890838,9.35641326 C0.000311890838,9.70074074 0.279766082,9.98019493 0.624093567,9.98019493 L3.11922027,9.98019493 C3.46354776,9.98019493 3.74300195,9.70074074 3.74300195,9.35641326 C3.74300195,7.63352827 5.13902534,6.23750487 6.86191033,6.23750487 L14.9710721,6.23750487 L14.9710721,8.1088499 C14.9710721,8.3608577 15.1232749,8.58916179 15.3565692,8.68522417 C15.5898635,8.78253411 15.8580897,8.72888889 16.0364912,8.55048733 L19.7791813,4.80779727 C20.0224561,4.56452242 20.0224561,4.16904483 19.7791813,3.92576998 Z" id="Path"></path>
                <path d="M19.3375439,9.98019493 L16.8424172,9.98019493 C16.4980897,9.98019493 16.2186355,10.2596491 16.2186355,10.6039766 C16.2186355,12.3268616 14.8226121,13.722885 13.0997271,13.722885 L4.9905653,13.722885 L4.9905653,11.85154 C4.9905653,11.5995322 4.83836257,11.3712281 4.60506823,11.2751657 C4.37177388,11.1791033 4.10479532,11.2327485 3.9251462,11.4111501 L0.18245614,15.1538402 C-0.0608187135,15.397115 -0.0608187135,15.7925926 0.18245614,16.0358674 L3.9251462,19.7785575 C4.10354776,19.9569591 4.37177388,20.0106043 4.60506823,19.9132943 C4.83836257,19.8159844 4.9905653,19.5889279 4.9905653,19.3369201 L4.9905653,17.465575 L13.0997271,17.465575 C16.8898246,17.465575 19.9613255,14.3940741 19.9613255,10.6039766 C19.9613255,10.2596491 19.6818713,9.98019493 19.3375439,9.98019493 Z" id="Path"></path>
            </g>
        </g>
    </g>
</svg>