<?xml version="1.0" encoding="UTF-8"?>
<svg width="20px" height="16px" viewBox="0 0 20 16" version="1.1" xmlns="http://www.w3.org/2000/svg" xmlns:xlink="http://www.w3.org/1999/xlink">
    <!-- Generator: Sketch 58 (84663) - https://sketch.com -->
    <title>rewind-button</title>
    <desc>Created with Sketch.</desc>
    <g id="Symbols" stroke="none" stroke-width="1" fill="none" fill-rule="evenodd">
        <g id="icons-/-icon_back" transform="translate(-1.000000, -4.000000)" fill="#51596D" fill-rule="nonzero">
            <g id="rewind-button" transform="translate(1.000000, 4.000000)">
                <path d="M8.25304348,0.313043478 C7.72391304,0.103513043 7.16434783,0.220382609 6.76043478,0.609808696 L0.541304348,6.63318261 C-0.18826087,7.33690435 -0.176086957,8.47429565 0.553478261,9.17843478 L6.80304348,15.2026435 C7.20695652,15.5916522 7.72173913,15.7089391 8.25086957,15.4989913 C8.77913043,15.2894609 9.03130435,14.7944348 9.03130435,14.2455652 L9.03130435,1.56646957 C9.03086957,1.0176 8.7826087,0.52173913 8.25304348,0.313043478 Z" id="Path"></path>
                <path d="M19.0765217,0.267130435 C18.5478261,0.0576 17.9643478,0.174469565 17.5608696,0.563895652 L11.3295652,6.58768696 C10.6004348,7.2914087 10.6065217,8.42838261 11.336087,9.13293913 L17.5826087,15.156313 C17.9869565,15.5453217 18.5465217,15.6626087 19.076087,15.4530783 C19.6043478,15.2431304 19.9008696,14.7485217 19.9008696,14.1992348 L19.9008696,1.52097391 C19.9004348,0.971269565 19.6056522,0.47666087 19.0765217,0.267130435 Z" id="Path"></path>
            </g>
        </g>
    </g>
</svg>