<?xml version="1.0" encoding="UTF-8"?>
<svg width="20px" height="17px" viewBox="0 0 20 17" version="1.1" xmlns="http://www.w3.org/2000/svg" xmlns:xlink="http://www.w3.org/1999/xlink">
    <!-- Generator: Sketch 58 (84663) - https://sketch.com -->
    <title>shuffle (1)</title>
    <desc>Created with Sketch.</desc>
    <g id="Symbols" stroke="none" stroke-width="1" fill="none" fill-rule="evenodd">
        <g id="icons-/-icon_shuffle" transform="translate(-2.000000, -4.000000)" fill="#51596D" fill-rule="nonzero">
            <g id="shuffle-(1)" transform="translate(2.000000, 4.000000)">
                <path d="M19.775,12.8904018 L16.025,9.8546875 C15.83875,9.70290179 15.57875,9.67254464 15.36,9.77090179 C15.14,9.8716875 15,10.0854018 15,10.3209732 L15,12.1424018 L13.95375,12.1424018 C13.08625,12.1424018 12.29375,11.7149732 11.83375,11.0009732 L7.78625,4.71097321 C6.8675,3.28175893 5.2825,2.42811607 3.54625,2.42811607 L0,2.42811607 L0,4.8566875 L3.54625,4.8566875 C4.41375,4.8566875 5.20625,5.28411607 5.66625,5.99811607 L9.71375,12.2881161 C10.63375,13.7173304 12.21875,14.5709732 13.95375,14.5709732 L15,14.5709732 L15,16.3924018 C15,16.6279732 15.14,16.8416875 15.36,16.9424732 C15.44375,16.9801161 15.535,16.9995446 15.625,16.9995446 C15.76875,16.9995446 15.91125,16.9521875 16.025,16.8586875 L19.775,13.8229732 C19.91875,13.7076161 20,13.5364018 20,13.3566875 C20,13.1769732 19.91875,13.0057589 19.775,12.8904018 Z" id="Path"></path>
                <path d="M19.775,3.17611607 L16.025,0.140401786 C15.83875,-0.0101696429 15.57875,-0.0417410714 15.36,0.0578303571 C15.14,0.1561875 15,0.371116071 15,0.6066875 L15,2.42811607 L13.95375,2.42811607 C12.2175,2.42811607 10.6325,3.28175893 9.71375,4.71097321 L9.4875,5.06311607 L10.96125,7.35447321 L11.83375,5.99811607 C12.29375,5.28411607 13.08625,4.8566875 13.95375,4.8566875 L15,4.8566875 L15,6.67811607 C15,6.9136875 15.14,7.12861607 15.36,7.2281875 C15.44375,7.26583036 15.535,7.28525893 15.625,7.28525893 C15.76875,7.28525893 15.91125,7.2366875 16.025,7.14440179 L19.775,4.1086875 C19.91875,3.99333036 20,3.82211607 20,3.64240179 C20,3.4626875 19.91875,3.29147321 19.775,3.17611607 Z" id="Path"></path>
                <path d="M6.53875,9.64461607 L5.6675,11.0009732 C5.2075,11.7149732 4.41375,12.1424018 3.54625,12.1424018 L0,12.1424018 L0,14.5709732 L3.54625,14.5709732 C5.28125,14.5709732 6.86625,13.7173304 7.78625,12.2881161 L8.0125,11.9359732 L6.53875,9.64461607 Z" id="Path"></path>
            </g>
        </g>
    </g>
</svg>